<svg width="36" height="36" viewBox="0 0 36 36" fill="none" xmlns="http://www.w3.org/2000/svg">
<path d="M23.41 25.25C23.1914 25.2529 22.9779 25.1841 22.8021 25.0541C22.6263 24.9242 22.498 24.7402 22.4367 24.5303C22.3755 24.3204 22.3847 24.0963 22.4629 23.8921C22.5412 23.688 22.6842 23.5151 22.87 23.4C23.78 22.832 24.5273 22.0381 25.0392 21.0955C25.551 20.1528 25.81 19.0937 25.7909 18.0212C25.7718 16.9487 25.4752 15.8995 24.93 14.9757C24.3848 14.052 23.6097 13.2851 22.68 12.75C22.5605 12.6875 22.4549 12.6014 22.3695 12.4971C22.2841 12.3927 22.2207 12.2721 22.1832 12.1425C22.1456 12.013 22.1346 11.8772 22.1509 11.7433C22.1671 11.6095 22.2103 11.4802 22.2778 11.3635C22.3453 11.2467 22.4357 11.1448 22.5436 11.0639C22.6515 10.983 22.7746 10.9247 22.9056 10.8926C23.0366 10.8605 23.1728 10.8553 23.3059 10.8772C23.4389 10.8991 23.5662 10.9477 23.68 11.02C24.9039 11.7297 25.9237 12.7436 26.6404 13.9635C27.3571 15.1833 27.7463 16.5676 27.7705 17.9822C27.7946 19.3968 27.4528 20.7936 26.7782 22.0372C26.1036 23.2808 25.119 24.329 23.92 25.08C23.7687 25.1822 23.5924 25.241 23.41 25.25V25.25Z" fill="black"/>
<path d="M25.62 31.18C25.3961 31.1787 25.1791 31.1022 25.0038 30.9629C24.8284 30.8236 24.705 30.6295 24.6531 30.4116C24.6012 30.1938 24.624 29.9649 24.7177 29.7615C24.8114 29.5581 24.9707 29.3921 25.17 29.29C27.2678 28.2564 29.0317 26.6523 30.2594 24.6619C31.4872 22.6714 32.129 20.3752 32.1112 18.0367C32.0935 15.6981 31.4169 13.4119 30.1591 11.4404C28.9013 9.46879 27.1132 7.8917 25 6.89C24.8781 6.83521 24.7684 6.75653 24.6774 6.65862C24.5864 6.5607 24.5159 6.44554 24.4702 6.31994C24.4245 6.19433 24.4044 6.06084 24.4112 5.92735C24.4179 5.79385 24.4514 5.66307 24.5096 5.54272C24.5677 5.42238 24.6494 5.31491 24.7498 5.22669C24.8503 5.13846 24.9673 5.07125 25.0942 5.02905C25.221 4.98684 25.355 4.97049 25.4882 4.98096C25.6215 4.99143 25.7513 5.02851 25.87 5.09C28.3246 6.24882 30.4029 8.07604 31.8665 10.3621C33.3301 12.6481 34.1197 15.3004 34.1448 18.0147C34.1698 20.729 33.4293 23.3955 32.0082 25.7081C30.587 28.0208 28.5428 29.8861 26.11 31.09C25.9569 31.1609 25.7883 31.1918 25.62 31.18V31.18Z" fill="black"/>
<path d="M18.3299 4L9.06995 12H3.06995C2.80473 12 2.55038 12.1054 2.36284 12.2929C2.1753 12.4804 2.06995 12.7348 2.06995 13V22.92C2.06995 23.1852 2.1753 23.4396 2.36284 23.6271C2.55038 23.8146 2.80473 23.92 3.06995 23.92H8.87995L18.3399 32.16C18.483 32.2858 18.6591 32.3681 18.8474 32.3972C19.0356 32.4263 19.2283 32.401 19.4027 32.3243C19.5771 32.2476 19.726 32.1227 19.8318 31.9643C19.9376 31.8058 19.9959 31.6205 19.9999 31.43V4.72C19.9957 4.52848 19.9365 4.34221 19.8295 4.18334C19.7224 4.02447 19.572 3.8997 19.3961 3.82385C19.2202 3.74801 19.0262 3.72429 18.8372 3.75552C18.6482 3.78675 18.4721 3.8716 18.3299 4V4Z" fill="black"/>
</svg>
