<svg width="20" height="19" viewBox="0 0 20 19" fill="none" xmlns="http://www.w3.org/2000/svg">
<path d="M3.75 0C4.74456 0 5.69839 0.33363 6.40165 0.927495C7.10491 1.52136 7.5 2.32681 7.5 3.16667V15.8333C7.5 16.6732 7.10491 17.4786 6.40165 18.0725C5.69839 18.6664 4.74456 19 3.75 19C2.75544 19 1.80161 18.6664 1.09835 18.0725C0.395088 17.4786 2.09588e-08 16.6732 0 15.8333V3.16667C0 2.32681 0.395088 1.52136 1.09835 0.927495C1.80161 0.33363 2.75544 0 3.75 0ZM16.25 0C17.2446 0 18.1984 0.33363 18.9017 0.927495C19.6049 1.52136 20 2.32681 20 3.16667V15.8333C20 16.6732 19.6049 17.4786 18.9017 18.0725C18.1984 18.6664 17.2446 19 16.25 19C15.2554 19 14.3016 18.6664 13.5983 18.0725C12.8951 17.4786 12.5 16.6732 12.5 15.8333V3.16667C12.5 2.32681 12.8951 1.52136 13.5983 0.927495C14.3016 0.33363 15.2554 0 16.25 0Z" fill="white"/>
</svg>
